<svg width="217" height="75" viewBox="0 0 217 75" fill="none" xmlns="http://www.w3.org/2000/svg">
<path d="M19.642 3.09091V14H18.321V3.09091H19.642ZM23.3774 9.07812V14H22.1203V5.81818H23.3348V7.09659H23.4413C23.6331 6.68111 23.9243 6.3473 24.3149 6.09517C24.7055 5.83949 25.2098 5.71165 25.8277 5.71165C26.3817 5.71165 26.8664 5.82528 27.2819 6.05256C27.6974 6.27628 28.0205 6.61719 28.2513 7.07528C28.4822 7.52983 28.5976 8.10511 28.5976 8.80114V14H27.3405V8.88636C27.3405 8.24361 27.1736 7.7429 26.8398 7.38423C26.5059 7.02202 26.0479 6.84091 25.4655 6.84091C25.0642 6.84091 24.7055 6.92791 24.3895 7.10192C24.077 7.27592 23.8302 7.52983 23.6491 7.86364C23.468 8.19744 23.3774 8.60227 23.3774 9.07812ZM37.2921 5.81818L34.2665 14H32.9881L29.9625 5.81818H31.3262L33.5847 12.3381H33.6699L35.9284 5.81818H37.2921ZM44.7468 7.65057L43.6175 7.97017C43.5465 7.78196 43.4418 7.59908 43.3033 7.42152C43.1683 7.24041 42.9837 7.09126 42.7493 6.97408C42.5149 6.85689 42.2148 6.7983 41.8491 6.7983C41.3484 6.7983 40.9311 6.91371 40.5973 7.14453C40.267 7.3718 40.1019 7.66122 40.1019 8.01278C40.1019 8.32528 40.2156 8.57209 40.4428 8.7532C40.6701 8.9343 41.0252 9.08523 41.5082 9.20597L42.7227 9.50426C43.4542 9.68182 43.9993 9.95348 44.358 10.3192C44.7166 10.6815 44.896 11.1484 44.896 11.7202C44.896 12.1889 44.761 12.608 44.4911 12.9773C44.2248 13.3466 43.8519 13.6378 43.3725 13.8509C42.8931 14.0639 42.3356 14.1705 41.6999 14.1705C40.8654 14.1705 40.1747 13.9893 39.6278 13.6271C39.081 13.2649 38.7347 12.7358 38.5891 12.0398L39.7823 11.7415C39.896 12.1818 40.1108 12.5121 40.4268 12.7322C40.7464 12.9524 41.1637 13.0625 41.6786 13.0625C42.2646 13.0625 42.7298 12.9382 43.0742 12.6896C43.4222 12.4375 43.5962 12.1357 43.5962 11.7841C43.5962 11.5 43.4968 11.2621 43.2979 11.0703C43.0991 10.875 42.7937 10.7294 42.3817 10.6335L41.0181 10.3139C40.2688 10.1364 39.7184 9.86115 39.3668 9.48828C39.0188 9.11186 38.8448 8.64134 38.8448 8.0767C38.8448 7.61506 38.9744 7.20668 39.2337 6.85156C39.4964 6.49645 39.8533 6.21768 40.3043 6.01527C40.7589 5.81286 41.2738 5.71165 41.8491 5.71165C42.6587 5.71165 43.2944 5.8892 43.756 6.24432C44.2212 6.59943 44.5515 7.06818 44.7468 7.65057ZM50.3465 5.81818V6.88352H46.1064V5.81818H50.3465ZM47.3422 3.85795H48.5993V11.6562C48.5993 12.0114 48.6508 12.2777 48.7538 12.4553C48.8604 12.6293 48.9953 12.7464 49.1586 12.8068C49.3256 12.8636 49.5013 12.892 49.686 12.892C49.8245 12.892 49.9381 12.8849 50.0269 12.8707C50.1157 12.853 50.1867 12.8388 50.24 12.8281L50.4957 13.9574C50.4104 13.9893 50.2915 14.0213 50.1388 14.0533C49.9861 14.0888 49.7925 14.1065 49.5582 14.1065C49.203 14.1065 48.855 14.0302 48.5141 13.8775C48.1768 13.7248 47.8962 13.4922 47.6725 13.1797C47.4523 12.8672 47.3422 12.473 47.3422 11.9972V3.85795ZM55.4735 14.1705C54.7348 14.1705 54.0867 13.9947 53.5292 13.6431C52.9752 13.2915 52.542 12.7997 52.2295 12.1676C51.9205 11.5355 51.7661 10.7969 51.7661 9.9517C51.7661 9.09943 51.9205 8.35547 52.2295 7.71982C52.542 7.08416 52.9752 6.59055 53.5292 6.23899C54.0867 5.88743 54.7348 5.71165 55.4735 5.71165C56.2121 5.71165 56.8584 5.88743 57.4124 6.23899C57.9699 6.59055 58.4031 7.08416 58.7121 7.71982C59.0246 8.35547 59.1808 9.09943 59.1808 9.9517C59.1808 10.7969 59.0246 11.5355 58.7121 12.1676C58.4031 12.7997 57.9699 13.2915 57.4124 13.6431C56.8584 13.9947 56.2121 14.1705 55.4735 14.1705ZM55.4735 13.0412C56.0345 13.0412 56.4962 12.8974 56.8584 12.6097C57.2206 12.3221 57.4887 11.9439 57.6627 11.4751C57.8367 11.0064 57.9237 10.4986 57.9237 9.9517C57.9237 9.40483 57.8367 8.89524 57.6627 8.42294C57.4887 7.95064 57.2206 7.56889 56.8584 7.2777C56.4962 6.98651 56.0345 6.84091 55.4735 6.84091C54.9124 6.84091 54.4507 6.98651 54.0885 7.2777C53.7263 7.56889 53.4582 7.95064 53.2842 8.42294C53.1102 8.89524 53.0232 9.40483 53.0232 9.9517C53.0232 10.4986 53.1102 11.0064 53.2842 11.4751C53.4582 11.9439 53.7263 12.3221 54.0885 12.6097C54.4507 12.8974 54.9124 13.0412 55.4735 13.0412ZM61.0998 14V5.81818H62.3143V7.05398H62.3995C62.5487 6.64915 62.8185 6.32067 63.2092 6.06854C63.5998 5.81641 64.0401 5.69034 64.5302 5.69034C64.6225 5.69034 64.7379 5.69212 64.8764 5.69567C65.0149 5.69922 65.1197 5.70455 65.1907 5.71165V6.99006C65.1481 6.9794 65.0504 6.96342 64.8977 6.94212C64.7486 6.91726 64.5906 6.90483 64.4237 6.90483C64.0259 6.90483 63.6708 6.98828 63.3583 7.15518C63.0494 7.31854 62.8043 7.54581 62.6232 7.837C62.4457 8.12464 62.3569 8.45312 62.3569 8.82244V14H61.0998ZM71.7093 3.09091L74.5218 7.62926H74.607L77.4195 3.09091H78.9749L75.5445 8.54545L78.9749 14H77.4195L74.607 9.54688H74.5218L71.7093 14H70.1539L73.6695 8.54545L70.1539 3.09091H71.7093Z" fill="black"/>
<rect width="4.73637" height="4.72321" transform="matrix(0.661428 0.750008 -0.682657 0.730739 3.40396 7.82935)" fill="#0019FF"/>
<rect width="4.73637" height="4.72321" transform="matrix(0.661428 0.750008 -0.682657 0.730739 10.2243 4)" fill="#0019FF"/>
<rect width="4.73637" height="4.72321" transform="matrix(0.661428 0.750008 -0.682657 0.730739 3.22433 3)" fill="#0019FF"/>
<rect width="4.73637" height="4.72321" transform="matrix(0.661428 0.750008 -0.682657 0.730739 9.86722 8.99634)" fill="#0019FF"/>
</svg>
